<?xml version="1.0" standalone="no"?>
<!DOCTYPE svg PUBLIC "-//W3C//DTD SVG 20010904//EN"
 "http://www.w3.org/TR/2001/REC-SVG-20010904/DTD/svg10.dtd">
<svg version="1.0" xmlns="http://www.w3.org/2000/svg"
 width="1014.000000pt" height="1014.000000pt" viewBox="0 0 1014.000000 1014.000000"
 preserveAspectRatio="xMidYMid meet">
<metadata>
Created by potrace 1.11, written by Peter Selinger 2001-2013
</metadata>
<g transform="translate(0.000000,1014.000000) scale(0.100000,-0.100000)"
fill="#000000" stroke="none">
<path d="M585 10078 c3 -29 190 -2064 415 -4522 225 -2458 413 -4472 417
-4476 4 -4 828 -247 1831 -540 l1822 -533 1823 533 c1002 293 1826 536 1830
540 4 4 192 2018 417 4476 225 2458 412 4493 415 4522 l6 52 -4491 0 -4491 0
6 -52z m2865 -1886 c0 -31 290 -3765 292 -3768 2 -2 157 407 345 909 l340 912
613 0 614 0 340 -912 c187 -501 342 -911 343 -909 2 2 293 3750 293 3773 0 2
272 3 605 3 333 0 605 -1 605 -2 0 -2 -108 -1305 -240 -2897 -142 -1719 -244
-2897 -250 -2901 -5 -3 -353 -107 -771 -229 -490 -144 -764 -219 -768 -213 -3
6 -177 497 -386 1091 -209 594 -382 1081 -385 1081 -3 0 -178 -487 -389 -1081
-357 -1003 -386 -1080 -405 -1075 -76 19 -1518 435 -1521 438 -3 3 -110 1280
-239 2839 -129 1559 -238 2860 -241 2892 l-6 57 606 0 c333 0 605 -4 605 -8z"/>
</g>
</svg>
