<?xml version="1.0" standalone="no"?>
<!DOCTYPE svg PUBLIC "-//W3C//DTD SVG 20010904//EN"
 "http://www.w3.org/TR/2001/REC-SVG-20010904/DTD/svg10.dtd">
<svg version="1.0" xmlns="http://www.w3.org/2000/svg"
 width="16.000000pt" height="16.000000pt" viewBox="0 0 16.000000 16.000000"
 preserveAspectRatio="xMidYMid meet">
<metadata>
Created by potrace 1.11, written by Peter Selinger 2001-2013
</metadata>
<g transform="translate(0.000000,16.000000) scale(0.002286,-0.002286)"
fill="#000000" stroke="none">
<path d="M1930 6349 c-52 -32 -100 -62 -107 -65 -7 -3 -288 -171 -625 -374
l-613 -367 -1 -1752 0 -1752 478 -287 c263 -158 490 -294 505 -303 16 -9 126
-75 246 -148 120 -72 223 -131 229 -131 5 0 30 14 55 30 24 17 46 30 48 30 2
0 39 21 82 48 43 26 86 52 96 57 10 6 223 134 475 285 251 151 463 276 470
278 6 2 12 8 12 13 0 5 4 9 10 9 5 0 54 27 110 61 l100 60 378 -227 c207 -124
391 -234 407 -244 17 -9 173 -103 349 -209 175 -105 322 -191 327 -191 7 0
211 120 289 169 14 9 67 41 118 71 230 136 1019 612 1033 623 14 11 15 181 15
1760 l-1 1749 -265 159 c-146 87 -276 165 -290 174 -433 261 -687 414 -714
430 -19 11 -67 39 -107 63 -40 23 -74 40 -77 38 -2 -3 -4 -788 -4 -1745 0
-1612 -1 -1739 -17 -1734 -9 4 -18 9 -21 12 -3 3 -17 13 -33 21 -15 8 -102 60
-193 115 -91 55 -178 107 -192 116 -15 9 -43 25 -62 36 -19 12 -239 143 -488
292 l-453 272 -362 -217 c-199 -119 -378 -227 -397 -239 -28 -18 -367 -221
-489 -292 -16 -10 -69 -42 -116 -71 -48 -28 -88 -52 -90 -52 -2 0 -3 766 -4
1703 0 1979 1 1787 -8 1786 -5 0 -51 -27 -103 -60z"/>
</g>
</svg>
